<?xml version="1.0" encoding="UTF-8"?><svg id="Layer_1" xmlns="http://www.w3.org/2000/svg" width="24" height="24" viewBox="0 0 24 24"><g><polygon points="6.535 24 0 24 0 0 6.535 0 6.535 2.1401 2.1401 2.1401 2.1401 21.8599 6.535 21.8599 6.535 24" fill="#00dec6"/><polygon points="24 24 17.465 24 17.465 21.8599 21.8599 21.8599 21.8599 2.1401 17.465 2.1401 17.465 0 24 0 24 24" fill="#00dec6"/></g><path d="M10.4526,8.156v1.9139h-2.2391v2.5911h2.2391v6.6074h2.677v-6.6084h2.2326l.3327-2.5932h-2.5653v-1.6531c0-.7513,.2093-1.2622,1.2827-1.2622h1.3739v-2.3185c-.2372-.0323-1.0519-.101-1.9997-.101-1.9793,0-3.3339,1.2065-3.3339,3.4241Z" fill="#fff"/></svg>