<?xml version="1.0" encoding="UTF-8"?><svg id="Layer_1" xmlns="http://www.w3.org/2000/svg" width="24" height="24" viewBox="0 0 24 24"><g><polygon points="6.535 24 0 24 0 0 6.535 0 6.535 2.1401 2.1401 2.1401 2.1401 21.8599 6.535 21.8599 6.535 24" fill="#00dec6"/><polygon points="24 24 17.465 24 17.465 21.8599 21.8599 21.8599 21.8599 2.1401 17.465 2.1401 17.465 0 24 0 24 24" fill="#00dec6"/></g><g><path d="M7.332,5.7067c-.8179,0-1.477,.6624-1.477,1.4759,0,.8157,.6591,1.478,1.477,1.478,.8147,0,1.477-.6623,1.477-1.478,0-.8136-.6612-1.4759-1.477-1.4759Z" fill="#fff"/><rect x="6.0568" y="9.7824" width="2.5504" height="8.1952" fill="#fff"/><path d="M15.0915,9.5752c-1.2398,0-2.0705,.6794-2.4119,1.3235h-.0322v-1.1163h-2.443v8.1952h2.5439v-4.0552c0-1.069,.2028-2.1038,1.5285-2.1038,1.3052,0,1.3245,1.2226,1.3245,2.1735v3.9854h2.5439v-4.4984c0-2.2079-.4777-3.9039-3.0537-3.9039Z" fill="#fff"/></g></svg>