<svg id="Layer_1" data-name="Layer 1" xmlns="http://www.w3.org/2000/svg" width="630.1587" height="112.6984" viewBox="0 0 630.1587 112.6984"><path d="M16.1406,56.3487c0-24.7408,18.9409-42.6165,44.3929-42.6165,13.495,0,25.0969,4.8534,32.791,13.85l-9.9432,9.3528a29.1023,29.1023,0,0,0-22.1376-9.7079c-17.1655,0-29.5953,12.0747-29.5953,29.1215S44.0782,85.47,61.2437,85.47a28.81,28.81,0,0,0,22.1376-9.8255l9.9432,9.47c-7.6941,8.9977-19.296,13.8511-32.91,13.8511C35.0815,98.9662,16.1406,81.0905,16.1406,56.3487Z" fill="#00dec6"/><path d="M106.02,56.3487c0-24.5045,18.9409-42.6165,44.6293-42.6165s44.63,17.9933,44.63,42.6165-18.9409,42.6175-44.63,42.6175S106.02,80.8542,106.02,56.3487Zm73.7518,0c0-16.9281-12.4308-29.1215-29.1225-29.1215s-29.1215,12.1934-29.1215,29.1215S133.9584,85.47,150.6491,85.47,179.7716,73.2778,179.7716,56.3487Z" fill="#00dec6"/><path d="M210.6684,56.3487c0-24.5045,18.9409-42.6165,44.6293-42.6165s44.63,17.9933,44.63,42.6165-18.9409,42.6175-44.63,42.6175S210.6684,80.8542,210.6684,56.3487Zm73.7518,0c0-16.9281-12.4308-29.1215-29.1225-29.1215s-29.1215,12.1934-29.1215,29.1215S238.606,85.47,255.2977,85.47,284.42,73.2778,284.42,56.3487Z" fill="#00dec6"/><path d="M315.3171,14.9162h15.3891V84.76h43.3276V97.7823H315.3171Z" fill="#00dec6"/><polyline points="452.7 93.853 415.196 56.349 452.7 18.845" fill="none" stroke="#fff" stroke-miterlimit="10" stroke-width="14.6668"/><polyline points="576.514 18.845 614.018 56.349 576.514 93.853" fill="none" stroke="#fff" stroke-miterlimit="10" stroke-width="14.6668"/><line x1="477.0014" y1="93.9941" x2="552.2913" y2="18.7043" fill="none" stroke="#fff" stroke-miterlimit="10" stroke-width="14.6668"/></svg>