<?xml version="1.0" encoding="UTF-8"?><svg id="Layer_1" xmlns="http://www.w3.org/2000/svg" width="24" height="24" viewBox="0 0 24 24"><g><polygon points="6.535 24 0 24 0 0 6.535 0 6.535 2.1401 2.1401 2.1401 2.1401 21.8599 6.535 21.8599 6.535 24" fill="#00dec6"/><polygon points="24 24 17.465 24 17.465 21.8599 21.8599 21.8599 21.8599 2.1401 17.465 2.1401 17.465 0 24 0 24 24" fill="#00dec6"/></g><path d="M16.9219,8.3077c.545-.3276,.9644-.8452,1.1617-1.4619-.5104,.3019-1.0763,.5217-1.6785,.64-.4815-.5136-1.1673-.834-1.9289-.834-1.4587,0-2.6421,1.1819-2.6421,2.6406,0,.2077,.0242,.4105,.0684,.6036-2.1961-.111-4.1434-1.1623-5.4468-2.7596-.2286,.3888-.3574,.8429-.3574,1.3284,0,.9176,.4669,1.7251,1.1754,2.1992-.4331-.0136-.8413-.1327-1.1971-.3299v.0322c0,1.2799,.9097,2.349,2.1196,2.5922-.2222,.0595-.4556,.0918-.6964,.0918-.1691,0-.3349-.0161-.4967-.0467,.3365,1.0497,1.3122,1.8138,2.4691,1.8355-.9049,.7084-2.0448,1.1303-3.2822,1.1303-.2134,0-.4234-.0121-.6303-.0363,1.1697,.7488,2.5584,1.1867,4.0509,1.1867,4.8608,0,7.519-4.0252,7.519-7.5175,0-.1151-.0032-.2285-.008-.3422,.5152-.3725,.9644-.8372,1.3186-1.3685h-.0008c-.4749,.2093-.9821,.3518-1.5175,.4162Z" fill="#fff"/></svg>