<?xml version="1.0" encoding="UTF-8"?><svg id="Layer_1" xmlns="http://www.w3.org/2000/svg" width="24" height="24" viewBox="0 0 24 24"><g><polygon points="6.535 24 0 24 0 0 6.535 0 6.535 2.1401 2.1401 2.1401 2.1401 21.8599 6.535 21.8599 6.535 24" fill="#00dec6"/><polygon points="24 24 17.465 24 17.465 21.8599 21.8599 21.8599 21.8599 2.1401 17.465 2.1401 17.465 0 24 0 24 24" fill="#00dec6"/></g><path d="M14.5168,7.5347h-5.034c-3.3869,0-3.9232,.4285-3.9232,3.3952v2.1405c0,2.9667,.5364,3.3952,3.9232,3.3952h5.034c3.3869,0,3.9232-.4285,3.9232-3.3952v-2.1405c0-2.9667-.5364-3.3952-3.9232-3.3952Zm-4.1873,6.4678v-4.2655l4.1058,2.1328-4.1058,2.1328Z" fill="#fff"/></svg>